<svg width="27" height="21" viewBox="0 0 27 21" fill="none" xmlns="http://www.w3.org/2000/svg">
<path d="M22.5413 7.27085H22.128L20.5134 3.24085C20.2251 2.52431 19.7291 1.91028 19.0893 1.4776C18.4495 1.04492 17.695 0.813312 16.9226 0.812516H9.17259C8.27525 0.809948 7.40484 1.11889 6.70992 1.6866C6.015 2.25432 5.53865 3.04562 5.36217 3.92543L4.69051 7.27085H4.45801C3.43029 7.27085 2.44467 7.67911 1.71797 8.40581C0.991266 9.13251 0.583008 10.1181 0.583008 11.1458V15.0208C0.583008 15.3634 0.719094 15.692 0.961328 15.9342C1.20356 16.1764 1.5321 16.3125 1.87467 16.3125H3.16634C3.16634 17.3402 3.5746 18.3259 4.3013 19.0526C5.02801 19.7793 6.01363 20.1875 7.04134 20.1875C8.06905 20.1875 9.05468 19.7793 9.78138 19.0526C10.5081 18.3259 10.9163 17.3402 10.9163 16.3125H16.083C16.083 17.3402 16.4913 18.3259 17.218 19.0526C17.9447 19.7793 18.9303 20.1875 19.958 20.1875C20.9857 20.1875 21.9713 19.7793 22.698 19.0526C23.4247 18.3259 23.833 17.3402 23.833 16.3125H25.1247C25.4672 16.3125 25.7958 16.1764 26.038 15.9342C26.2803 15.692 26.4163 15.3634 26.4163 15.0208V11.1458C26.4163 10.1181 26.0081 9.13251 25.2814 8.40581C24.5547 7.67911 23.5691 7.27085 22.5413 7.27085ZM14.7913 3.39585H16.9226C17.1791 3.39817 17.4291 3.4768 17.6407 3.62173C17.8523 3.76665 18.016 3.9713 18.1109 4.2096L19.338 7.27085H14.7913V3.39585ZM7.89384 4.42918C7.95423 4.13303 8.11656 3.86744 8.35257 3.67863C8.58858 3.48982 8.88333 3.38976 9.18551 3.39585H12.208V7.27085H7.32551L7.89384 4.42918ZM7.04134 17.6042C6.78587 17.6042 6.53614 17.5284 6.32373 17.3865C6.11132 17.2446 5.94576 17.0428 5.848 16.8068C5.75023 16.5708 5.72465 16.3111 5.77449 16.0605C5.82433 15.81 5.94735 15.5798 6.128 15.3992C6.30864 15.2185 6.53879 15.0955 6.78935 15.0457C7.03991 14.9958 7.29962 15.0214 7.53564 15.1192C7.77166 15.2169 7.97339 15.3825 8.11532 15.5949C8.25725 15.8073 8.33301 16.057 8.33301 16.3125C8.33301 16.6551 8.19692 16.9836 7.95469 17.2259C7.71245 17.4681 7.38391 17.6042 7.04134 17.6042ZM19.958 17.6042C19.7025 17.6042 19.4528 17.5284 19.2404 17.3865C19.028 17.2446 18.8624 17.0428 18.7647 16.8068C18.6669 16.5708 18.6413 16.3111 18.6912 16.0605C18.741 15.81 18.864 15.5798 19.0447 15.3992C19.2253 15.2185 19.4555 15.0955 19.706 15.0457C19.9566 14.9958 20.2163 15.0214 20.4523 15.1192C20.6883 15.2169 20.8901 15.3825 21.032 15.5949C21.1739 15.8073 21.2497 16.057 21.2497 16.3125C21.2497 16.6551 21.1136 16.9836 20.8714 17.2259C20.6291 17.4681 20.3006 17.6042 19.958 17.6042ZM23.833 13.7292H22.8255C22.4623 13.3296 22.0196 13.0103 21.5258 12.7919C21.032 12.5734 20.498 12.4605 19.958 12.4605C19.418 12.4605 18.884 12.5734 18.3902 12.7919C17.8964 13.0103 17.4537 13.3296 17.0905 13.7292H9.90884C9.54565 13.3296 9.10295 13.0103 8.60914 12.7919C8.11534 12.5734 7.58132 12.4605 7.04134 12.4605C6.50136 12.4605 5.96735 12.5734 5.47354 12.7919C4.97973 13.0103 4.53703 13.3296 4.17384 13.7292H3.16634V11.1458C3.16634 10.8033 3.30243 10.4747 3.54466 10.2325C3.7869 9.99027 4.11544 9.85418 4.45801 9.85418H22.5413C22.8839 9.85418 23.2125 9.99027 23.4547 10.2325C23.6969 10.4747 23.833 10.8033 23.833 11.1458V13.7292Z" fill="black"/>
</svg>
